<svg width="33" height="32" viewBox="0 0 33 32" fill="none" xmlns="http://www.w3.org/2000/svg">
<g clip-path="url(#clip0_3502_10822)">
<path d="M29.556 24.938C29.0893 26.0249 28.513 27.0614 27.836 28.0313C26.9306 29.3213 26.19 30.214 25.6193 30.71C24.7346 31.5233 23.786 31.9407 22.7706 31.964C22.042 31.964 21.1633 31.7567 20.14 31.336C19.1133 30.9173 18.17 30.7093 17.3073 30.7093C16.4026 30.7093 15.4326 30.9173 14.3946 31.336C13.3553 31.7567 12.518 31.976 11.878 31.9973C10.9046 32.0393 9.93396 31.6107 8.96463 30.71C8.34663 30.17 7.57396 29.246 6.64729 27.9367C5.65329 26.538 4.83596 24.9167 4.19596 23.0673C3.51063 21.0707 3.16663 19.1367 3.16663 17.2647C3.16663 15.12 3.62996 13.2707 4.55796 11.7207C5.28796 10.4753 6.25796 9.494 7.47263 8.77267C8.66428 8.05956 10.024 7.67581 11.4126 7.66067C12.186 7.66067 13.2 7.9 14.4606 8.37C15.7173 8.84133 16.524 9.08067 16.878 9.08067C17.142 9.08067 18.0386 8.80067 19.558 8.24333C20.9953 7.726 22.208 7.512 23.2013 7.59667C25.894 7.814 27.9166 8.87533 29.2613 10.7873C26.854 12.246 25.6626 14.2893 25.6866 16.9107C25.708 18.9527 26.4486 20.652 27.9046 22.0007C28.5646 22.6273 29.3013 23.1113 30.1206 23.4547C29.9488 23.9552 29.7605 24.4499 29.556 24.938ZM23.3813 0.640667C23.3813 2.24067 22.7966 3.73533 21.6313 5.118C20.2246 6.76267 18.524 7.71267 16.6793 7.56267C16.6545 7.36139 16.642 7.15879 16.642 6.956C16.642 5.42 17.3106 3.776 18.4986 2.43133C19.092 1.75067 19.8453 1.18467 20.76 0.733333C21.6733 0.288667 22.536 0.0426667 23.348 0C23.3713 0.214 23.3813 0.428 23.3813 0.64V0.640667Z" fill="white"/>
</g>
<defs>
<clipPath id="clip0_3502_10822">
<rect width="32" height="32" fill="white" transform="translate(0.5)"/>
</clipPath>
</defs>
</svg>
