<svg width="25" height="25" viewBox="0 0 25 25" fill="none" xmlns="http://www.w3.org/2000/svg">
<path d="M7.98126 9.84668H3.48126V5.34668" stroke="#5F6C72" stroke-width="1.5" stroke-linecap="round" stroke-linejoin="round"/>
<path d="M18.3313 6.66885C17.5659 5.90236 16.6569 5.29429 15.6563 4.87941C14.6558 4.46453 13.5832 4.25098 12.5 4.25098C11.4168 4.25098 10.3443 4.46453 9.34369 4.87941C8.3431 5.29429 7.43413 5.90236 6.66876 6.66885L3.48126 9.84698" stroke="#5F6C72" stroke-width="1.5" stroke-linecap="round" stroke-linejoin="round"/>
<path d="M17.0187 15.1533H21.5187V19.6533" stroke="#5F6C72" stroke-width="1.5" stroke-linecap="round" stroke-linejoin="round"/>
<path d="M6.66876 18.3314C7.43413 19.0979 8.3431 19.706 9.34368 20.1209C10.3443 20.5358 11.4168 20.7493 12.5 20.7493C13.5832 20.7493 14.6558 20.5358 15.6563 20.1209C16.6569 19.706 17.5659 19.0979 18.3313 18.3314L21.5188 15.1533" stroke="#5F6C72" stroke-width="1.5" stroke-linecap="round" stroke-linejoin="round"/>
</svg>
