<svg width="17" height="17" viewBox="0 0 17 17" fill="none" xmlns="http://www.w3.org/2000/svg">
<g clip-path="url(#clip0_3502_6980)">
<path fill-rule="evenodd" clip-rule="evenodd" d="M8.5 0.5C12.9183 0.5 16.5 4.08173 16.5 8.5C16.5 12.9183 12.9183 16.5 8.5 16.5C4.08173 16.5 0.5 12.9183 0.5 8.5C0.5 4.08173 4.08173 0.5 8.5 0.5Z" fill="white"/>
<path d="M9.54144 16.433V10.2524H11.2849L11.516 8.0771H9.54144L9.54437 6.98827C9.54437 6.42091 9.5983 6.11705 10.4137 6.11705H11.5038V3.94141H9.75992C7.66524 3.94141 6.92808 4.9966 6.92808 6.77136V8.07726H5.62231V10.2527H6.92808V16.3453C7.43677 16.4466 7.96267 16.5001 8.50114 16.5001C8.84899 16.5001 9.19648 16.4777 9.54144 16.433Z" fill="#1B6392"/>
</g>
<defs>
<clipPath id="clip0_3502_6980">
<rect width="16" height="16" fill="white" transform="translate(0.5 0.5)"/>
</clipPath>
</defs>
</svg>
