<svg width="49" height="49" viewBox="0 0 49 49" fill="none" xmlns="http://www.w3.org/2000/svg">
<path fill-rule="evenodd" clip-rule="evenodd" d="M48.5 24.5C48.5 37.7548 37.7548 48.5 24.5 48.5C11.2452 48.5 0.5 37.7548 0.5 24.5C0.5 11.2452 11.2452 0.5 24.5 0.5C37.7548 0.5 48.5 11.2452 48.5 24.5ZM36.5 24.5C36.5 31.1274 31.1274 36.5 24.5 36.5C17.8726 36.5 12.5 31.1274 12.5 24.5C12.5 17.8726 17.8726 12.5 24.5 12.5C31.1274 12.5 36.5 17.8726 36.5 24.5ZM24.5 32.5C28.9183 32.5 32.5 28.9183 32.5 24.5C32.5 20.0817 28.9183 16.5 24.5 16.5C20.0817 16.5 16.5 20.0817 16.5 24.5C16.5 28.9183 20.0817 32.5 24.5 32.5Z" fill="#FA8232"/>
</svg>
