<svg width="17" height="17" viewBox="0 0 17 17" fill="none" xmlns="http://www.w3.org/2000/svg">
<g clip-path="url(#clip0_3502_6991)">
<path d="M6.10062 8.4998C6.10062 7.17437 7.17485 6.09961 8.50034 6.09961C9.82582 6.09961 10.9006 7.17437 10.9006 8.4998C10.9006 9.82524 9.82582 10.9 8.50034 10.9C7.17485 10.9 6.10062 9.82524 6.10062 8.4998ZM4.80308 8.4998C4.80308 10.5417 6.45833 12.1969 8.50034 12.1969C10.5423 12.1969 12.1976 10.5417 12.1976 8.4998C12.1976 6.45788 10.5423 4.80269 8.50034 4.80269C6.45833 4.80269 4.80313 6.45777 4.80313 8.4998H4.80308ZM11.48 4.6561C11.4799 4.82698 11.5305 4.99405 11.6254 5.13617C11.7203 5.27829 11.8552 5.38909 12.0131 5.45454C12.1709 5.52 12.3446 5.53718 12.5122 5.50391C12.6799 5.47064 12.8339 5.38841 12.9547 5.26763C13.0756 5.14684 13.158 4.99293 13.1914 4.82534C13.2248 4.65776 13.2078 4.48403 13.1424 4.32613C13.0771 4.16822 12.9664 4.03324 12.8243 3.93825C12.6823 3.84325 12.5153 3.79251 12.3444 3.79244H12.344C12.115 3.79255 11.8953 3.88357 11.7333 4.0455C11.5713 4.20743 11.4802 4.42704 11.48 4.6561ZM5.59142 14.3605C4.88942 14.3285 4.50786 14.2116 4.2543 14.1128C3.91813 13.9819 3.67828 13.8261 3.42609 13.5742C3.17391 13.3224 3.01781 13.0828 2.88751 12.7467C2.78867 12.4932 2.67173 12.1116 2.63982 11.4096C2.60491 10.6506 2.59794 10.4227 2.59794 8.49992C2.59794 6.57717 2.60549 6.34983 2.63982 5.59026C2.67179 4.88828 2.78959 4.50738 2.88751 4.25319C3.01838 3.91703 3.17425 3.67719 3.42609 3.42501C3.67793 3.17284 3.91756 3.01675 4.2543 2.88645C4.50775 2.78761 4.88942 2.67068 5.59142 2.63877C6.35039 2.60387 6.57838 2.5969 8.50034 2.5969C10.4223 2.5969 10.6505 2.60433 11.4101 2.63889C12.1121 2.67086 12.493 2.78865 12.7472 2.88657C13.0834 3.01686 13.3233 3.1733 13.5754 3.42513C13.8276 3.67696 13.9832 3.91715 14.114 4.2533C14.2129 4.50674 14.3298 4.8884 14.3617 5.59037C14.3966 6.34994 14.4036 6.57729 14.4036 8.50003C14.4036 10.4228 14.3966 10.6501 14.3617 11.4097C14.3297 12.1117 14.2122 12.4932 14.114 12.7468C13.9832 13.0829 13.8273 13.3228 13.5754 13.5744C13.3236 13.826 13.0834 13.9821 12.7472 14.1129C12.4938 14.2118 12.1121 14.3287 11.4101 14.3606C10.6511 14.3955 10.4232 14.4025 8.50034 14.4025C6.57751 14.4025 6.35016 14.3955 5.59142 14.3606V14.3605ZM5.5318 1.34341C4.76529 1.37831 4.24151 1.49985 3.78409 1.67783C3.31066 1.86164 2.90934 2.10822 2.5086 2.50831C2.10786 2.9084 1.8619 3.30976 1.67809 3.78375C1.5001 4.24144 1.37856 4.76491 1.34365 5.53139C1.30817 6.29908 1.30005 6.54451 1.30005 8.4998C1.30005 10.4551 1.30817 10.7005 1.34365 11.4682C1.37856 12.2348 1.5001 12.7582 1.67809 13.2159C1.8619 13.6893 2.10792 14.0914 2.5086 14.4913C2.90928 14.8912 3.31008 15.1375 3.78409 15.3218C4.24237 15.4998 4.76529 15.6213 5.5318 15.6562C6.29993 15.6911 6.54497 15.6998 8.50034 15.6998C10.4557 15.6998 10.7011 15.6917 11.4689 15.6562C12.2354 15.6213 12.7589 15.4998 13.2166 15.3218C13.69 15.1375 14.0913 14.8914 14.4921 14.4913C14.8928 14.0912 15.1383 13.6893 15.3226 13.2159C15.5006 12.7582 15.6227 12.2347 15.657 11.4682C15.6919 10.7 15.7 10.4551 15.7 8.4998C15.7 6.54451 15.6919 6.29908 15.657 5.53139C15.6221 4.76485 15.5006 4.24115 15.3226 3.78375C15.1383 3.31033 14.8922 2.90903 14.4921 2.50831C14.092 2.10759 13.69 1.86164 13.2172 1.67783C12.7589 1.49985 12.2354 1.37774 11.4694 1.34341C10.7016 1.30833 10.4563 1.2998 8.5012 1.2998C6.54612 1.2998 6.30022 1.30793 5.53209 1.34341" fill="white"/>
</g>
<defs>
<clipPath id="clip0_3502_6991">
<rect width="16" height="16" fill="white" transform="translate(0.5 0.5)"/>
</clipPath>
</defs>
</svg>
