<svg width="17" height="17" viewBox="0 0 17 17" fill="none" xmlns="http://www.w3.org/2000/svg">
<g clip-path="url(#clip0_3502_6983)">
<path d="M7.52418 0.553509C4.86532 0.850326 2.21584 3.00147 2.10648 6.07431C2.03775 7.9505 2.57046 9.35804 4.35605 9.75327C5.13089 8.38635 4.10609 8.08485 3.94675 7.09598C3.29219 3.04365 8.62084 0.280124 11.4094 3.10926C13.3387 5.06825 12.0686 11.0952 8.95671 10.4688C5.97604 9.87044 10.4158 5.07294 8.03658 4.13093C6.10258 3.36546 5.07466 6.47266 5.99167 8.01611C5.45427 10.6703 4.29668 13.1714 4.76534 16.5004C6.28536 15.3975 6.79776 13.2854 7.21799 11.0827C7.9819 11.5467 8.38964 12.0294 9.36445 12.1044C12.9591 12.3824 14.9665 8.51602 14.476 4.94952C14.0401 1.78764 10.8845 0.178582 7.52418 0.553509Z" fill="white"/>
</g>
<defs>
<clipPath id="clip0_3502_6983">
<rect width="16" height="16" fill="white" transform="translate(0.5 0.5)"/>
</clipPath>
</defs>
</svg>
