<svg width="17" height="17" viewBox="0 0 17 17" fill="none" xmlns="http://www.w3.org/2000/svg">
<g clip-path="url(#clip0_3502_6985)">
<path d="M8.5 16.5C12.9183 16.5 16.5 12.9183 16.5 8.5C16.5 4.08172 12.9183 0.5 8.5 0.5C4.08172 0.5 0.5 4.08172 0.5 8.5C0.5 12.9183 4.08172 16.5 8.5 16.5Z" fill="white"/>
<path d="M13.8361 8.50013C13.8377 8.60973 13.8241 8.71913 13.7953 8.82493C13.7665 8.93073 13.7229 9.03213 13.6657 9.12573C13.6087 9.21933 13.5387 9.30454 13.4579 9.37874C13.3771 9.45294 13.2863 9.51534 13.1881 9.56414C13.1903 9.59334 13.1921 9.62274 13.1931 9.65214C13.1955 9.71078 13.1955 9.7695 13.1931 9.82814C13.1921 9.85754 13.1903 9.88694 13.1881 9.91614C13.1881 11.7082 11.1001 13.1642 8.52404 13.1642C5.94802 13.1642 3.86 11.7082 3.86 9.91614C3.8578 9.88694 3.856 9.85754 3.855 9.82814C3.8526 9.7695 3.8526 9.71078 3.855 9.65214C3.856 9.62274 3.8578 9.59334 3.86 9.56414C3.70615 9.49342 3.56951 9.39012 3.45952 9.26138C3.34953 9.13264 3.26883 8.98154 3.223 8.81853C3.17724 8.65545 3.1675 8.48438 3.19443 8.31716C3.22137 8.14994 3.28435 7.99058 3.379 7.85012C3.47357 7.70968 3.59756 7.59151 3.74237 7.50378C3.88718 7.41606 4.04934 7.3609 4.21761 7.34212C4.38589 7.32325 4.55627 7.34121 4.71692 7.39474C4.87758 7.44827 5.02467 7.53609 5.14801 7.65212C5.37698 7.49692 5.61688 7.35849 5.86582 7.23791C6.11482 7.11751 6.37223 7.01511 6.63603 6.93191C6.89983 6.84871 7.16943 6.78491 7.44244 6.74071C7.71544 6.69651 7.99144 6.67231 8.26804 6.66811L8.86005 3.89208C8.86665 3.85988 8.87965 3.82948 8.89825 3.80228C8.91665 3.77528 8.94045 3.75208 8.96785 3.73428C8.99545 3.71648 9.02625 3.70428 9.05865 3.69828C9.09085 3.69248 9.12405 3.69308 9.15605 3.70008L11.1161 4.09208C11.3139 3.75228 11.7291 3.60668 12.0957 3.74828C12.4623 3.88988 12.6719 4.27688 12.5899 4.66129C12.5081 5.04569 12.1589 5.31369 11.7665 5.29349C11.3739 5.27329 11.0541 4.97089 11.0121 4.58009L9.30005 4.22008L8.78005 6.71611C9.05325 6.72191 9.32585 6.74751 9.59545 6.79251C10.1353 6.8825 10.6594 7.04997 11.1515 7.28972C11.3972 7.40932 11.634 7.54647 11.8601 7.70012C12.0226 7.54408 12.2268 7.43843 12.4481 7.39592C12.6693 7.35326 12.8982 7.37555 13.1071 7.46012C13.316 7.54464 13.4959 7.6878 13.6253 7.87232C13.7547 8.05686 13.8279 8.2749 13.8361 8.50013ZM5.89682 9.60634C5.93722 9.70334 5.99602 9.79154 6.07042 9.86574C6.14462 9.94014 6.23282 9.99894 6.32983 10.0393C6.42692 10.0795 6.53096 10.1002 6.63603 10.1001C6.95963 10.1001 7.25123 9.90514 7.37523 9.60634C7.49904 9.30734 7.43043 8.96333 7.20163 8.73453C6.97283 8.50573 6.62883 8.43713 6.32983 8.56093C6.03102 8.68493 5.83602 8.97653 5.83602 9.30014C5.83602 9.40514 5.85662 9.50914 5.89682 9.60634ZM10.4789 11.5268C10.5199 11.4868 10.5433 11.4322 10.5441 11.375C10.5449 11.3176 10.5227 11.2624 10.4827 11.2214C10.4427 11.1804 10.3881 11.157 10.3309 11.1562C10.2735 11.1554 10.2183 11.1776 10.1721 11.2122C10.0518 11.2984 9.92437 11.3744 9.79126 11.4392C9.65813 11.504 9.51977 11.5574 9.37765 11.599C9.23565 11.6404 9.09025 11.6698 8.94325 11.6868C8.79605 11.7038 8.64785 11.7082 8.50004 11.7002C8.35244 11.7068 8.20444 11.7008 8.05784 11.6824C7.9112 11.6641 7.7664 11.6334 7.62504 11.5904C7.48344 11.5476 7.34603 11.4928 7.21383 11.4268C7.08163 11.3608 6.95523 11.2836 6.83603 11.1962C6.79463 11.1622 6.74203 11.1448 6.68843 11.1474C6.63483 11.15 6.58423 11.1726 6.54623 11.2104C6.50843 11.2484 6.48583 11.299 6.48323 11.3526C6.48063 11.4062 6.49803 11.4588 6.53203 11.5002C6.67263 11.6062 6.82203 11.6998 6.97863 11.7802C7.13523 11.8606 7.29863 11.9272 7.46664 11.9796C7.63464 12.032 7.80684 12.0698 7.98144 12.0928C8.15604 12.1156 8.33224 12.1234 8.50804 12.1162C8.68385 12.1234 8.86005 12.1156 9.03465 12.0928C9.38436 12.0468 9.72356 11.941 10.0375 11.7802C10.1941 11.6998 10.3435 11.6062 10.4841 11.5002L10.4789 11.5268ZM10.3321 10.1641C10.4405 10.1653 10.5481 10.1443 10.6483 10.1027C10.7485 10.0609 10.8391 9.99934 10.9147 9.92154C10.9903 9.84374 11.0491 9.75134 11.0879 9.64994C11.1267 9.54866 11.1445 9.44052 11.1401 9.33214C11.1401 9.00853 10.9451 8.71693 10.6463 8.59293C10.3473 8.46913 10.0033 8.53773 9.77446 8.76653C9.54565 8.99533 9.47705 9.33934 9.60085 9.63834C9.72486 9.93714 10.0165 10.1321 10.3401 10.1321L10.3321 10.1641Z" fill="#1B6392"/>
</g>
<defs>
<clipPath id="clip0_3502_6985">
<rect width="16" height="16" fill="white" transform="translate(0.5 0.5)"/>
</clipPath>
</defs>
</svg>
