<svg width="21" height="21" viewBox="0 0 21 21" fill="none" xmlns="http://www.w3.org/2000/svg">
<path d="M12.375 16.7498V12.9998C12.375 12.834 12.3092 12.6751 12.1919 12.5579C12.0747 12.4406 11.9158 12.3748 11.75 12.3748H9.25C9.08424 12.3748 8.92527 12.4406 8.80806 12.5579C8.69085 12.6751 8.625 12.834 8.625 12.9998V16.7498C8.625 16.9156 8.55915 17.0745 8.44194 17.1917C8.32473 17.309 8.16576 17.3748 8 17.3748H4.25C4.08424 17.3748 3.92527 17.309 3.80806 17.1917C3.69085 17.0745 3.625 16.9156 3.625 16.7498V9.52324C3.6264 9.43674 3.64509 9.3514 3.67998 9.27224C3.71486 9.19308 3.76523 9.1217 3.82812 9.0623L10.0781 3.38261C10.1933 3.27721 10.3438 3.21875 10.5 3.21875C10.6562 3.21875 10.8067 3.27721 10.9219 3.38261L17.1719 9.0623C17.2348 9.1217 17.2851 9.19308 17.32 9.27224C17.3549 9.3514 17.3736 9.43674 17.375 9.52324V16.7498C17.375 16.9156 17.3092 17.0745 17.1919 17.1917C17.0747 17.309 16.9158 17.3748 16.75 17.3748H13C12.8342 17.3748 12.6753 17.309 12.5581 17.1917C12.4408 17.0745 12.375 16.9156 12.375 16.7498Z" stroke="#5F6C72" stroke-width="1.5" stroke-linecap="round" stroke-linejoin="round"/>
</svg>
