<svg width="25" height="25" viewBox="0 0 25 25" fill="none" xmlns="http://www.w3.org/2000/svg">
<path d="M21.6406 13.2503H18.6406C18.2428 13.2503 17.8613 13.4083 17.58 13.6897C17.2987 13.971 17.1406 14.3525 17.1406 14.7503V18.5003C17.1406 18.8981 17.2987 19.2797 17.58 19.561C17.8613 19.8423 18.2428 20.0003 18.6406 20.0003H20.1406C20.5384 20.0003 20.92 19.8423 21.2013 19.561C21.4826 19.2797 21.6406 18.8981 21.6406 18.5003V13.2503ZM21.6406 13.2503C21.6407 12.0621 21.4054 10.8856 20.9484 9.78875C20.4915 8.6919 19.8218 7.6964 18.9781 6.85969C18.1344 6.02297 17.1334 5.36161 16.0328 4.91375C14.9322 4.46589 13.7538 4.24041 12.5656 4.25031C11.3782 4.24165 10.2008 4.46805 9.10132 4.91647C8.0018 5.36488 7.00189 6.02645 6.1592 6.86304C5.31651 7.69963 4.6477 8.69471 4.19131 9.79094C3.73492 10.8872 3.49997 12.0629 3.5 13.2503V18.5003C3.5 18.8981 3.65804 19.2797 3.93934 19.561C4.22064 19.8423 4.60218 20.0003 5 20.0003H6.5C6.89782 20.0003 7.27936 19.8423 7.56066 19.561C7.84196 19.2797 8 18.8981 8 18.5003V14.7503C8 14.3525 7.84196 13.971 7.56066 13.6897C7.27936 13.4083 6.89782 13.2503 6.5 13.2503H3.5" stroke="#5F6C72" stroke-width="1.5" stroke-linecap="round" stroke-linejoin="round"/>
</svg>
