<svg width="29" height="29" viewBox="0 0 29 29" fill="none" xmlns="http://www.w3.org/2000/svg">
<path d="M17.9343 4.875C19.4185 5.27332 20.7718 6.05499 21.8584 7.14159C22.945 8.22818 23.7266 9.58147 24.125 11.0656" stroke="#191C1F" stroke-width="1.5" stroke-linecap="round" stroke-linejoin="round"/>
<path d="M17.0266 8.25488C17.9192 8.49195 18.7333 8.96077 19.3864 9.61384C20.0395 10.2669 20.5083 11.081 20.7454 11.9736" stroke="#191C1F" stroke-width="1.5" stroke-linecap="round" stroke-linejoin="round"/>
<path d="M10.6172 14.1504C11.5176 16.0098 13.0211 17.5095 14.8828 18.4051C15.0201 18.4701 15.172 18.4983 15.3235 18.4868C15.475 18.4752 15.6209 18.4245 15.7469 18.3395L18.4812 16.5129C18.6021 16.431 18.7417 16.381 18.887 16.3676C19.0324 16.3542 19.1788 16.3778 19.3125 16.4363L24.4313 18.6348C24.6062 18.7076 24.7524 18.8359 24.8472 18.9999C24.9421 19.164 24.9804 19.3546 24.9563 19.5426C24.794 20.8089 24.1759 21.9726 23.2177 22.8162C22.2594 23.6597 21.0266 24.1251 19.75 24.1254C15.8049 24.1254 12.0214 22.5582 9.23179 19.7686C6.44218 16.979 4.875 13.1955 4.875 9.2504C4.87529 7.97377 5.34073 6.74099 6.18425 5.78273C7.02776 4.82447 8.19154 4.20639 9.45781 4.04415C9.64576 4.02001 9.83643 4.05832 10.0005 4.15319C10.1645 4.24805 10.2928 4.39421 10.3656 4.56915L12.5641 9.69884C12.6212 9.83047 12.6451 9.97414 12.6337 10.1172C12.6223 10.2602 12.5758 10.3983 12.4984 10.5192L10.6719 13.2973C10.5906 13.4229 10.5428 13.5673 10.5333 13.7167C10.5237 13.8661 10.5526 14.0154 10.6172 14.1504V14.1504Z" stroke="#191C1F" stroke-width="1.5" stroke-linecap="round" stroke-linejoin="round"/>
</svg>
