<svg width="17" height="17" viewBox="0 0 17 17" fill="none" xmlns="http://www.w3.org/2000/svg">
<path d="M8.775 12.4188L11.925 14.4188C12.3312 14.675 12.8312 14.2938 12.7125 13.825L11.8 10.2375C11.7753 10.1381 11.7792 10.0337 11.8113 9.93638C11.8434 9.83907 11.9023 9.7528 11.9812 9.68752L14.8062 7.33127C15.175 7.02502 14.9875 6.40627 14.5062 6.37502L10.8187 6.13752C10.7181 6.13166 10.6214 6.09663 10.5404 6.03669C10.4594 5.97675 10.3975 5.89451 10.3625 5.80002L8.9875 2.33752C8.9511 2.23745 8.88479 2.15102 8.79758 2.08994C8.71037 2.02886 8.60647 1.99609 8.5 1.99609C8.39352 1.99609 8.28963 2.02886 8.20241 2.08994C8.1152 2.15102 8.04889 2.23745 8.0125 2.33752L6.6375 5.80002C6.60245 5.89451 6.54064 5.97675 6.45962 6.03669C6.37859 6.09663 6.28186 6.13166 6.18125 6.13752L2.49375 6.37502C2.0125 6.40627 1.825 7.02502 2.19375 7.33127L5.01875 9.68752C5.09771 9.7528 5.15661 9.83907 5.18868 9.93638C5.22075 10.0337 5.22467 10.1381 5.2 10.2375L4.35625 13.5625C4.2125 14.125 4.8125 14.5813 5.29375 14.275L8.225 12.4188C8.3072 12.3665 8.40259 12.3387 8.5 12.3387C8.59741 12.3387 8.6928 12.3665 8.775 12.4188Z" fill="white" stroke="#ADB7BC" stroke-width="1.5" stroke-linecap="round" stroke-linejoin="round"/>
</svg>
