<svg width="25" height="25" viewBox="0 0 25 25" fill="none" xmlns="http://www.w3.org/2000/svg">
<path d="M8.75 20.75C8.75 21.1642 8.41421 21.5 8 21.5C7.58579 21.5 7.25 21.1642 7.25 20.75C7.25 20.3358 7.58579 20 8 20C8.41421 20 8.75 20.3358 8.75 20.75Z" fill="#191C1F" stroke="#191C1F" stroke-width="1.5"/>
<path d="M17.75 22.25C18.5784 22.25 19.25 21.5784 19.25 20.75C19.25 19.9216 18.5784 19.25 17.75 19.25C16.9216 19.25 16.25 19.9216 16.25 20.75C16.25 21.5784 16.9216 22.25 17.75 22.25Z" fill="#191C1F"/>
<path d="M4.46562 7.25H21.2844L18.8094 15.9125C18.7211 16.2269 18.532 16.5036 18.2711 16.7C18.0103 16.8965 17.6922 17.0019 17.3656 17H8.38437C8.05783 17.0019 7.7397 16.8965 7.47886 16.7C7.21803 16.5036 7.02893 16.2269 6.94062 15.9125L3.54688 4.04375C3.50203 3.88696 3.4073 3.74905 3.27704 3.65093C3.14677 3.55282 2.98808 3.49983 2.825 3.5H1.25" stroke="#191C1F" stroke-width="1.5" stroke-linecap="round" stroke-linejoin="round"/>
</svg>
