<svg width="17" height="17" viewBox="0 0 17 17" fill="none" xmlns="http://www.w3.org/2000/svg">
<g clip-path="url(#clip0_3502_6978)">
<path d="M5.53184 15.0024C11.5699 15.0024 14.8718 9.99713 14.8718 5.65673C14.8718 5.51458 14.8689 5.37308 14.8625 5.23217C15.505 4.76699 16.0595 4.19103 16.5 3.53128C15.9118 3.79294 15.2789 3.96904 14.6149 4.04844C15.2926 3.64181 15.8129 2.99851 16.0584 2.23169C15.414 2.61419 14.7091 2.88382 13.9739 3.02898C13.3749 2.39052 12.5221 1.99121 11.5778 1.99121C9.76494 1.99121 8.29489 3.46219 8.29489 5.2754C8.29489 5.53319 8.32374 5.78385 8.38006 6.02436C5.65177 5.88699 3.23252 4.57995 1.61343 2.59252C1.32182 3.09379 1.16843 3.66349 1.16894 4.24345C1.16894 5.38304 1.74846 6.38903 2.62976 6.97759C2.10846 6.96166 1.5986 6.82077 1.14306 6.56676C1.14257 6.58055 1.14257 6.59399 1.14257 6.60872C1.14257 8.19944 2.27408 9.52759 3.77613 9.82854C3.49402 9.90542 3.20292 9.94428 2.91054 9.94411C2.69938 9.94411 2.49359 9.92333 2.29359 9.88491C2.71151 11.19 3.92335 12.1397 5.36013 12.1663C4.23659 13.0474 2.82127 13.5723 1.28302 13.5723C1.02135 13.5725 0.759888 13.5573 0.5 13.5267C1.95281 14.4585 3.67789 15.0022 5.532 15.0022" fill="white"/>
</g>
<defs>
<clipPath id="clip0_3502_6978">
<rect width="16" height="16" fill="white" transform="translate(0.5 0.5)"/>
</clipPath>
</defs>
</svg>
