<svg width="17" height="17" viewBox="0 0 17 17" fill="none" xmlns="http://www.w3.org/2000/svg">
<g clip-path="url(#clip0_3502_6988)">
<path d="M8.85392 14.0026L5.57659 13.9427C4.51547 13.9218 3.4517 13.9635 2.41138 13.7472C0.828813 13.424 0.716699 11.8393 0.599383 10.5101C0.437733 8.64132 0.500312 6.73865 0.805366 4.8855C0.977579 3.84568 1.65531 3.22522 2.70339 3.1577C6.24144 2.91267 9.80301 2.94171 13.3332 3.05602C13.7061 3.0665 14.0814 3.12378 14.4491 3.18898C16.2638 3.50697 16.308 5.30277 16.4257 6.81449C16.543 8.34181 16.4935 9.87697 16.2692 11.3939C16.0893 12.6499 15.7452 13.7031 14.2926 13.8048C12.4727 13.9378 10.6946 14.0448 8.86952 14.0107C8.8696 14.0026 8.85912 14.0026 8.85392 14.0026ZM6.92717 10.8229C8.29863 10.0357 9.64392 9.26163 11.0075 8.47973C9.63352 7.69255 8.29079 6.91849 6.92717 6.13659V10.8229Z" fill="white"/>
</g>
<defs>
<clipPath id="clip0_3502_6988">
<rect width="16" height="16" fill="white" transform="translate(0.5 0.5)"/>
</clipPath>
</defs>
</svg>
